<svg width="16" height="16" viewBox="0 0 512 512" fill="none" xmlns="http://www.w3.org/2000/svg">
<!-- Safari pinned tab - monochrome version -->
<g transform="translate(100, 60) scale(4.5)">
  <path d="M61.702 101.459V88.552H89.453C91.39 88.552 92.573 87.476 93.003 85.324L95.8 72.202H93.863C92.858 73.78 91.604 75.267 90.098 76.666C88.592 78.063 86.656 79.212 84.289 80.107C81.923 81.003 78.946 81.452 75.361 81.452C71.919 81.452 68.8 80.681 66.003 79.14C63.207 77.599 60.983 75.286 59.334 72.202C57.684 69.119 56.86 65.247 56.86 60.585C56.86 56.14 57.506 51.802 58.797 47.57C60.088 43.34 62.041 39.539 64.659 36.168C67.276 32.798 70.503 30.109 74.34 28.101C78.175 26.094 82.639 25.089 87.732 25.089C92.105 25.089 95.423 25.933 97.682 27.617C99.941 29.303 101.356 31.543 101.931 34.34H103.867L105.481 26.595H119.034L104.943 93.07C104.441 95.507 103.239 97.515 101.34 99.093C99.439 100.669 97.269 101.459 94.832 101.459H61.702ZM82.354 68.545C85.796 68.545 88.878 67.63 91.604 65.802C94.329 63.973 96.461 61.572 98.004 58.595C99.545 55.62 100.316 52.41 100.316 48.968C100.316 45.526 99.294 42.837 97.251 40.901C95.207 38.964 92.392 37.997 88.807 37.997C85.222 37.997 82.066 38.911 79.341 40.74C76.615 42.569 74.517 44.935 73.049 47.839C71.578 50.743 70.844 53.846 70.844 57.143C70.844 60.872 71.901 63.705 74.017 65.641C76.131 67.577 78.912 68.545 82.354 68.545Z" fill="#000000" transform="translate(-56, -25)"/>
</g>
</svg>
